<svg width="236" height="28" viewBox="0 0 236 28" fill="none" xmlns="http://www.w3.org/2000/svg">
<path fill-rule="evenodd" clip-rule="evenodd" d="M46.2185 26.67C30.0158 26.6212 14.8555 23.9405 1.00429 15.8085L7.07978 5.46011C18.4952 12.1621 31.3437 14.6251 46.2547 14.6701C61.093 14.7148 77.4963 12.3791 96.1666 9.72047L96.9001 9.61603C134.61 4.24696 180.182 -2.10725 234.338 9.7008L231.782 21.4253C179.925 10.1186 136.254 16.134 98.5915 21.4962C98.169 21.5564 97.747 21.6165 97.3256 21.6765C79.0867 24.2745 61.9368 26.7174 46.2185 26.67Z" fill="#F16B51" fill-opacity="0.8"/>
<path fill-rule="evenodd" clip-rule="evenodd" d="M48.6851 20.8382C32.7955 20.8679 18.0859 18.2746 4.63614 10.3783L8.68647 3.47938C20.5033 10.417 33.6599 12.8663 48.6701 12.8382C63.4758 12.8105 79.7746 10.3833 98.1243 7.65078L99.2055 7.48979C136.629 1.91851 181.606 -4.58643 235.39 7.14047L233.686 14.9568C181.457 3.56897 137.762 9.83809 100.383 15.4026C99.9084 15.4733 99.4341 15.544 98.9607 15.6145C80.8925 18.3059 64.0854 20.8094 48.6851 20.8382Z" fill="#FFDA84"/>
</svg>
