<svg width="40" height="40" viewBox="0 0 40 40" fill="none" xmlns="http://www.w3.org/2000/svg">
<rect width="40" height="40" rx="9" fill="#202445"/>
<path d="M17.8563 10.9009H17.462C15.4689 10.9009 13.9685 11.3518 12.961 12.2536C11.7454 13.3401 11.1376 15.1382 11.1376 17.648C11.1376 18.3433 11.2142 18.8974 11.3676 19.3103C11.4114 19.4515 11.4661 19.5765 11.5318 19.6851C11.5756 19.7612 11.5975 19.8372 11.5975 19.9133C10.3819 19.9133 9.49487 19.6743 8.93634 19.1962C8.31211 18.6747 8 17.8381 8 16.6864C8 15.5348 8.21355 14.4429 8.64066 13.4107C9.07871 12.3677 9.74127 11.455 10.6283 10.6728C11.5811 9.82529 12.7912 9.16797 14.2587 8.70078C15.7372 8.23359 17.4784 8 19.4825 8C20.6324 8 21.7331 8.06519 22.7844 8.19557C23.1129 8.22816 23.54 8.28792 24.0657 8.37484C24.9418 8.53781 25.7851 8.64646 26.5955 8.70078C26.9897 8.74424 27.488 8.76597 28.0903 8.76597C28.835 8.76597 29.5469 8.70078 30.2259 8.5704C30.9049 8.44003 31.4962 8.27162 32 8.06519C31.9452 9.52108 31.5674 10.5913 30.8665 11.2757C30.1766 11.9602 29.1526 12.3025 27.7947 12.3025C27.0609 12.3025 26.3217 12.2427 25.577 12.1232C24.8323 12.0037 23.8303 11.819 22.5708 11.5691L17.922 33H13.0924L17.8563 10.9009Z" fill="#F16B51"/>
</svg>
